<svg xmlns="http://www.w3.org/2000/svg" width="291.081" height="77.536" viewBox="0 0 291.081 77.536"><defs><style>.a{fill:#fff;}.b{fill:#dc1217;}</style></defs><g transform="translate(156.364)"><path class="a" d="M431.614,453.685q-1.241-.509-1.24-1.452a3.479,3.479,0,0,1,.556-1.843,6.806,6.806,0,0,0,3.662.941,3.616,3.616,0,0,0,2.239-.608,2.113,2.113,0,0,0,.8-1.785,3.886,3.886,0,0,0-.334-1.609,4.642,4.642,0,0,0-1.146-1.491l-3.589-3.257a5.41,5.41,0,0,1-2.145-4.159,4.121,4.121,0,0,1,1.536-3.394,7.1,7.1,0,0,1,4.533-1.236,6.7,6.7,0,0,1,3.57.707,1.916,1.916,0,0,1,1.054,1.491,2.172,2.172,0,0,1-.186.8,3.749,3.749,0,0,1-.443.8,6.566,6.566,0,0,0-3.663-1.059,3.894,3.894,0,0,0-2.127.51,1.6,1.6,0,0,0-.8,1.413,2.25,2.25,0,0,0,.3,1.118,5.657,5.657,0,0,0,1.182,1.314l3.442,2.943a8.653,8.653,0,0,1,1.72,2.354,6.11,6.11,0,0,1,.5,2.55,5.047,5.047,0,0,1-1.646,4.023,6.62,6.62,0,0,1-4.5,1.432A8.754,8.754,0,0,1,431.614,453.685Z" transform="translate(-430.374 -424.962)"/><path class="a" d="M442.949,453.4a3.779,3.779,0,0,1-1.665-2.1,11.627,11.627,0,0,1-.482-3.708v-12.87a.634.634,0,0,1,.129-.471,1.88,1.88,0,0,1,.888-.137q.757-.019,2.053-.019v13.773a5.31,5.31,0,0,0,.5,2.746,2.276,2.276,0,0,0,2.016.745,4.029,4.029,0,0,0,2.48-.745V434.726a.585.585,0,0,1,.147-.471,1.909,1.909,0,0,1,.87-.137c.482-.013,1.14-.019,1.979-.019v18.6a10.91,10.91,0,0,1-2.59,1.021,11.514,11.514,0,0,1-2.96.393A6.616,6.616,0,0,1,442.949,453.4Z" transform="translate(-427.446 -424.876)"/><path class="a" d="M452.381,461.239a1.451,1.451,0,0,1-.315-1.08v-24.8a9.44,9.44,0,0,1,5.4-1.57,5.582,5.582,0,0,1,4.5,1.8q1.535,1.806,1.534,6.357,0,7.1-1.572,9.673a4.579,4.579,0,0,1-3.941,2.571,4.465,4.465,0,0,1-1.719-.314,3.442,3.442,0,0,1-1.2-.786v8.2a4.883,4.883,0,0,1-1.554.234A1.663,1.663,0,0,1,452.381,461.239Zm7.825-18.933a15.522,15.522,0,0,0-.315-3.571,3.051,3.051,0,0,0-.925-1.725,2.632,2.632,0,0,0-1.646-.471,3.684,3.684,0,0,0-2.258.745v12.792a2.24,2.24,0,0,0,2,1.295Q460.2,451.37,460.206,442.306Z" transform="translate(-424.282 -424.962)"/><path class="a" d="M463.1,428.351a1.681,1.681,0,0,1,.239-1.04,1.138,1.138,0,0,1,.8-.354q.555-.058,1.96-.059v28.213a.589.589,0,0,1-.147.471,1.892,1.892,0,0,1-.868.136q-.722.021-1.979.021Z" transform="translate(-421.183 -426.898)"/><path class="a" d="M478.4,449.879a7.6,7.6,0,0,1,.26,2.157c0,.6-.5,1.112-1.5,1.531a9.308,9.308,0,0,1-3.607.629,6.2,6.2,0,0,1-3.164-.745,5.042,5.042,0,0,1-2.016-2.747,17.065,17.065,0,0,1-.74-5.689,21.418,21.418,0,0,1,.907-7.064,6.16,6.16,0,0,1,2.312-3.315,6.352,6.352,0,0,1,3.33-.844q4.7,0,4.7,6.277a26.075,26.075,0,0,1-.406,5.1,26.023,26.023,0,0,1-3.793.491q-2.165.137-3.978.136a11.829,11.829,0,0,0,.464,3.257,2.981,2.981,0,0,0,1.109,1.609,3.439,3.439,0,0,0,1.906.471A7.789,7.789,0,0,0,478.4,449.879ZM471.7,438.048a12.841,12.841,0,0,0-.962,5.239,18.325,18.325,0,0,0,5.068-.471,12.263,12.263,0,0,0,.184-2.354,7.448,7.448,0,0,0-.482-3.041,1.707,1.707,0,0,0-1.665-.843A2.422,2.422,0,0,0,471.7,438.048Z" transform="translate(-419.91 -424.962)"/><path class="a" d="M494.673,434.419a2.993,2.993,0,0,1,1.2,1.787,13.086,13.086,0,0,1,.3,3.117v13.852a.593.593,0,0,1-.147.471,1.966,1.966,0,0,1-.889.136c-.494.014-1.146.021-1.961.021V439.284a4.461,4.461,0,0,0-.352-2.118,1.564,1.564,0,0,0-1.46-.588,4.521,4.521,0,0,0-2.516.745v15.851a.637.637,0,0,1-.131.471,1.69,1.69,0,0,1-.831.136q-.7.021-1.961.021h-.037v-14.6a8.78,8.78,0,0,0-.11-1.629,1.182,1.182,0,0,0-.5-.784,2.321,2.321,0,0,0-1.24-.255,4.83,4.83,0,0,0-2.517.706v15.931a.588.588,0,0,1-.147.471,1.959,1.959,0,0,1-.888.136q-.74.021-1.961.021V435.086a12.782,12.782,0,0,1,5.587-1.295,4.268,4.268,0,0,1,3.366,1.217,8.608,8.608,0,0,1,2.165-.882,9.027,9.027,0,0,1,2.349-.334A4.724,4.724,0,0,1,494.673,434.419Z" transform="translate(-416.852 -424.962)"/><path class="a" d="M505.406,449.879a7.607,7.607,0,0,1,.26,2.157c0,.6-.5,1.112-1.5,1.531a9.313,9.313,0,0,1-3.607.629,6.2,6.2,0,0,1-3.164-.745,5.043,5.043,0,0,1-2.016-2.747,17.067,17.067,0,0,1-.74-5.689,21.42,21.42,0,0,1,.907-7.064,6.16,6.16,0,0,1,2.312-3.315,6.352,6.352,0,0,1,3.33-.844q4.7,0,4.7,6.277a26.056,26.056,0,0,1-.407,5.1,25.981,25.981,0,0,1-3.791.491q-2.165.137-3.978.136a11.884,11.884,0,0,0,.462,3.257,2.989,2.989,0,0,0,1.11,1.609,3.439,3.439,0,0,0,1.906.471A7.789,7.789,0,0,0,505.406,449.879Zm-6.7-11.831a12.885,12.885,0,0,0-.962,5.239,18.313,18.313,0,0,0,5.068-.471,12.141,12.141,0,0,0,.186-2.354,7.491,7.491,0,0,0-.482-3.041,1.708,1.708,0,0,0-1.665-.843A2.425,2.425,0,0,0,498.71,438.048Z" transform="translate(-412.326 -424.962)"/><path class="a" d="M505.5,435.126a13.979,13.979,0,0,1,2.811-.941,13.467,13.467,0,0,1,3.071-.393q2.886,0,4.032,1.2t1.148,4.06v14.126a.583.583,0,0,1-.15.471,2.012,2.012,0,0,1-.906.136q-.759.021-2.016.021V439.992a5.782,5.782,0,0,0-.443-2.708,1.9,1.9,0,0,0-1.777-.745,6.514,6.514,0,0,0-1.442.175,4.229,4.229,0,0,0-1.332.53v15.931a.588.588,0,0,1-.149.471,1.959,1.959,0,0,1-.888.136c-.494.014-1.146.021-1.961.021Z" transform="translate(-409.276 -424.962)"/><path class="a" d="M519.567,454.972a3.382,3.382,0,0,1-1-1.923,17.486,17.486,0,0,1-.242-3.238V438.353h-2.516q0-1.059.038-1.706a1.772,1.772,0,0,1,.167-.825.492.492,0,0,1,.425-.175h1.885v-5.965a.991.991,0,0,1,.242-.765,1.377,1.377,0,0,1,.776-.275q.536-.058,1.942-.059v7.064h3.849c0,.706-.014,1.282-.038,1.725a1.724,1.724,0,0,1-.165.825.523.523,0,0,1-.425.156h-3.22v11.458a8.515,8.515,0,0,0,.241,2.373,1.056,1.056,0,0,0,1.128.765,3.5,3.5,0,0,0,1.036-.137,8.684,8.684,0,0,0,1.109-.451,5.721,5.721,0,0,1,.223,1.569,1.362,1.362,0,0,1-.926,1.335,5.774,5.774,0,0,1-2.256.393A3.3,3.3,0,0,1,519.567,454.972Z" transform="translate(-406.381 -426.425)"/><path class="a" d="M526.531,453.45a4.913,4.913,0,0,1-1.869-2.964,24.687,24.687,0,0,1-.646-6.494q0-10.2,6.177-10.2a5.451,5.451,0,0,1,3.256.883,5.551,5.551,0,0,1,1.849,3.1,23.554,23.554,0,0,1,.629,6.142q0,5.337-1.536,7.808a5.033,5.033,0,0,1-4.569,2.473A6.3,6.3,0,0,1,526.531,453.45Zm5.421-3.571a16.751,16.751,0,0,0,.721-5.965,29.547,29.547,0,0,0-.277-4.669,4.388,4.388,0,0,0-.834-2.2,1.933,1.933,0,0,0-1.479-.589,2.289,2.289,0,0,0-2.09,1.648,16.774,16.774,0,0,0-.721,5.964,28.279,28.279,0,0,0,.3,4.748,4.2,4.2,0,0,0,.85,2.158,2.012,2.012,0,0,0,1.479.551A2.27,2.27,0,0,0,531.952,449.879Z" transform="translate(-404.077 -424.962)"/></g><g transform="translate(69.114 25.75)"><path class="b" d="M372.547,456.917h14.945c7.061,0,11.551,1.533,14.122,4.106a10.972,10.972,0,0,1,3.011,7.992c0,5.966-3.12,11.112-10.674,13.467l5.31,12.754h-13.8l-4.27-10.948H378.02l-2.955,10.948H362.254Zm12.535,18.229c4.27,0,6.514-1.97,6.514-4.379a2.807,2.807,0,0,0-.821-2.025,5.278,5.278,0,0,0-3.777-1.1h-4.544l-2.025,7.5Z" transform="translate(-362.254 -444.218)"/><path class="b" d="M416.87,459.427h12.7l5.8,38.594H421.742l-.657-5.146H407.674l-3.339,5.146h-13.96Zm3.5,24.361-1.04-9.307-5.966,9.307ZM426.615,447l11.933,3.12-11.057,7.39h-8.979Z" transform="translate(-354.357 -447.002)"/><path class="b" d="M436.524,456.917h12.865c7.061,0,11.385,1.368,14.233,4.215a10.613,10.613,0,0,1,3.01,7.718c0,9.581-7.225,15.986-19.378,15.986h-5.421l-2.792,10.4h-12.81ZM446.6,475.694c4.872,0,7.116-2.19,7.116-5.09a3.19,3.19,0,0,0-.931-2.245,5.553,5.553,0,0,0-3.831-1.205h-2.409l-2.244,8.541Z" transform="translate(-344.288 -444.218)"/><path class="b" d="M465.027,456.917h12.811l-10.291,38.32H454.736Z" transform="translate(-336.283 -444.218)"/><path class="b" d="M478.361,456.917h13.577c7.445,0,12.1,2.026,15,4.927,2.846,2.846,4.16,6.569,4.16,11.221a21.024,21.024,0,0,1-6.3,15.109c-4.6,4.6-11.223,7.062-20.091,7.062H468.07Zm7.775,27.152c3.886,0,7.225-1.149,9.2-3.12a9.782,9.782,0,0,0,2.738-6.514A5.882,5.882,0,0,0,496.481,470c-1.2-1.205-3.12-1.916-6.185-1.916h-2.135l-4.27,15.985Z" transform="translate(-332.538 -444.218)"/><path class="b" d="M503.071,478.818a22.613,22.613,0,0,1,22.555-22.5c11.276,0,19.05,7.554,19.05,17.353a22.613,22.613,0,0,1-22.554,22.5C510.846,496.172,503.071,488.616,503.071,478.818Zm28.74-4c0-4.05-2.463-7.227-7.061-7.227-5.364,0-8.815,5.257-8.815,10.072,0,4.051,2.464,7.226,7.063,7.226C528.362,484.894,531.812,479.639,531.812,474.822Z" transform="translate(-322.709 -444.386)"/></g><rect class="b" width="71.031" height="6.088" transform="translate(0 70.681)"/><rect class="b" width="29.928" height="6.084" transform="translate(39.131 54.643)"/><rect class="b" width="49.706" height="6.084" transform="translate(21.325 38.922)"/></svg>