<svg xmlns="http://www.w3.org/2000/svg" width="203.866" height="211.614" viewBox="0 0 203.866 211.614"><defs><style>.a{fill:#be2229;}.b{fill:#fff;}</style></defs><g transform="translate(-1316.134 -1180)"><path class="a" d="M1376.8-1473.653l28.772,6.267,48.429-5.128-16.523-38.458-4.843-17.377,7.407-16.808s19.087-20.8,19.087-22.22,3.134-26.208,3.134-26.208l9.686,5.7,19.371-3.7,20.226-11.965,5.128-13.959-20.8-25.069-30.482-16.523h-9.971v9.686l3.7,6.837s11.965-.855,12.819-1.14,11.68,16.808,11.68,16.808l-2.564,9.4h-35.609l-7.976,2.849-7.692-12.25-1.424-48.714H1380.5l2.279,7.692,9.971,8.831-6.837,18.517,9.116,9.4v4.273H1403v9.4l-10.255,2.849-15.953-10.255-13.389,7.407-14.244-9.4-5.128-13.674,11.11-13.959h10.54l3.419-10.825-12.535-7.407-13.674,2.564-9.116,20.8-14.529,36.749,1.14,9.116,28.772,11.965,19.941,1.14,1.424,15.383,9.971,14.244v30.2l3.988,22.505v15.1Z" transform="translate(0 2859)"/><g transform="translate(1292.134 1164)"><path class="b" d="M219.1,216.62a25.928,25.928,0,0,0,7.152-3.331l1.274-.849-3.833-5.751-1.275.85a18.767,18.767,0,0,1-16.449,2.2l-2.185,6.556a25.914,25.914,0,0,0,8.2,1.339c.073,0,.146,0,.22,0a21.5,21.5,0,0,1-11.818,19.1l-3.966,1.983,3.09,6.181,3.966-1.983A28.444,28.444,0,0,0,219.1,216.62Z" transform="translate(-97.95 -108.326)"/><path class="b" d="M225.241,73.214a118.872,118.872,0,0,0-29.921-30.9l-6.91-4.936a3.462,3.462,0,0,0-.916-.467L166.762,30a3.456,3.456,0,0,0-4.445,2.44L158.862,46.26a3.455,3.455,0,0,0,.909,3.282l6.911,6.911a3.456,3.456,0,0,0,3.536.835l8.589-2.863A31.3,31.3,0,0,1,189.388,72.88a67.282,67.282,0,0,0-15.019,1.371l-1.985-1.135a18.267,18.267,0,0,0-20.033,1.247l-1.66,1.245-.139-.111-.43.538-1.4,1.053-7.235-7.234v-50.4A3.455,3.455,0,0,0,138.026,16H89.651A3.455,3.455,0,0,0,86.2,19.455v3.455A13.846,13.846,0,0,0,96.562,36.295v3.077L90.016,52.463A3.455,3.455,0,0,0,91.562,57.1l5.631,2.815,3,9.008a3.455,3.455,0,0,0,3.278,2.362h3.455v3.448a26.957,26.957,0,0,0-3.3,2.185l-2.061-2.061,0,0-1.125-1.125h0a20.143,20.143,0,0,0-27.169-1.2,15.541,15.541,0,0,0-16.129-6.562l-1.833-11L61.6,47.1h3.868a13.821,13.821,0,1,0,0-27.643H59.736A13.8,13.8,0,0,0,46.327,29.924l-1.263,5.053A73.742,73.742,0,0,0,24,86.784v1.779a3.455,3.455,0,0,0,1.624,2.93l12.7,7.939a47.643,47.643,0,0,0,33.81,6.515l1.833.611,1.14,10.259a22.7,22.7,0,0,0,6.487,13.5,15.6,15.6,0,0,1,4.6,11.107,265.185,265.185,0,0,0,2.035,32.742l1.421,11.367v9.725l-6.808,27.23,6.7,1.676,6.911-27.643a3.455,3.455,0,0,0,.1-.838v-6.911h46.71A55.846,55.846,0,0,1,155.3,223.321h6.911a62.782,62.782,0,0,0-13.708-39.079l-.615-.769a29.8,29.8,0,0,1-.6-24.824l.677-1.579A34.8,34.8,0,0,1,157.63,144.1a41.44,41.44,0,0,0,14.95-31.92v-4.243a35.791,35.791,0,0,0,32.675-3.093l15.374-9.784a15.626,15.626,0,0,0,4.612-21.851ZM93.107,22.911h41.464V55.329a32.475,32.475,0,0,1-7.2-4.925,9.4,9.4,0,0,0,.293-2.294V45.074a8.351,8.351,0,0,0-8.342-8.342,8.451,8.451,0,0,0-.954.059,32.6,32.6,0,0,1-1.137-4.192,3.455,3.455,0,0,0-3.388-2.778H100.017a6.919,6.919,0,0,1-6.911-6.911ZM216.919,89.235l-15.374,9.783a28.969,28.969,0,0,1-28.965,1.335V95.473h-6.911v16.711A34.548,34.548,0,0,1,153.205,138.8a41.742,41.742,0,0,0-11.591,15.552l-.677,1.579a36.7,36.7,0,0,0-1.149,25.931H96.157L95.1,173.365a258.55,258.55,0,0,1-1.989-31.946,22.47,22.47,0,0,0-6.625-15.994,15.766,15.766,0,0,1-4.5-9.373l-.8-7.2a18.291,18.291,0,0,0,3.976.44h3.452a18.3,18.3,0,0,0,9.806-2.845l-3.7-5.838a11.4,11.4,0,0,1-6.108,1.772H85.154a11.385,11.385,0,0,1-3.609-.586l-8.077-2.692A3.457,3.457,0,0,0,71.7,99a40.757,40.757,0,0,1-29.709-5.425L30.911,86.647A66.882,66.882,0,0,1,50.63,39.176a3.456,3.456,0,0,0,.909-1.605l1.492-5.97a6.9,6.9,0,0,1,6.7-5.234h5.728a6.911,6.911,0,0,1,1.865,13.566l.833-1.041a3.455,3.455,0,1,0-5.4-4.317L48.944,51.851a3.455,3.455,0,0,0-.71,2.726l3.018,18.1A4.736,4.736,0,0,1,46.58,78.2h-5.3v6.911h5.3A11.63,11.63,0,0,0,58.2,72.818a8.609,8.609,0,0,1,9.868,4.495l.85,1.7v1.208A15.253,15.253,0,0,0,84.172,95.473h5.48V88.562h-5.48a8.342,8.342,0,0,1-8.342-8.341v-.593l1.012-1.012a13.229,13.229,0,0,1,18.708,0l1.125,1.125a11.337,11.337,0,0,1,3.343,8.069v.752h6.911V87.81a18.457,18.457,0,0,0-.489-4.214,19.993,19.993,0,0,1,13.717-5.4h.593V71.286h-.593a27.244,27.244,0,0,0-6.319.743V70.321l8-2.667a3.456,3.456,0,0,0-2.185-6.556l-9.834,3.278h-3.859l-2.668-8a3.454,3.454,0,0,0-1.733-2l-3.82-1.91,5.365-10.731a3.455,3.455,0,0,0,.365-1.545V36.732h7.639c.334,1.209.733,2.4,1.181,3.571l-.9.9,4.887,4.887,2.024-2.024a1.431,1.431,0,0,1,2.443,1.012V48.11a2.443,2.443,0,0,1-2.444,2.443h-1.012v6.911h1.012a9.284,9.284,0,0,0,4.978-1.441,39.367,39.367,0,0,0,8.223,5.5l3.063,1.531v8.231a3.456,3.456,0,0,0,1.012,2.443L145.949,84.1a3.454,3.454,0,0,0,4.35.434A14.034,14.034,0,0,1,149.4,103.4l4.887,4.887a20.937,20.937,0,0,0,1.544-27.894l.661-.5a11.357,11.357,0,0,1,12.458-.776l3.56,2.034a11.419,11.419,0,0,1,5.2,13.28l6.589,2.084a18.35,18.35,0,0,0-2.792-16.4,60.237,60.237,0,0,1,18.178.81l3.307.661,1.355-6.777-3.307-.661c-1.52-.3-3.053-.548-4.593-.744a38.219,38.219,0,0,0-14.892-25.614,3.455,3.455,0,0,0-3.166-.514l-8.34,2.78-4.017-4.017,2.076-8.3,16.7,5.566,6.487,4.634a111.989,111.989,0,0,1,28.188,29.112,8.716,8.716,0,0,1-2.573,12.187Z"/><path class="b" d="M265.519,182.911V176a14.55,14.55,0,0,0-10.749,4.691,33.811,33.811,0,0,0-8.891-4.514l-2.185,6.556a26.83,26.83,0,0,1,18.369,25.486v13.962a26.689,26.689,0,0,1-7.868,19L242.343,253.03l4.887,4.887,11.852-11.852a33.555,33.555,0,0,0,9.893-23.883V208.22a33.725,33.725,0,0,0-9-22.964A7.679,7.679,0,0,1,265.519,182.911Z" transform="translate(-124.037 -90.893)"/><rect class="b" width="6" height="13" transform="translate(127.999 209.219)"/></g></g></svg>