<svg xmlns="http://www.w3.org/2000/svg" width="140.388" height="189.219" viewBox="0 0 140.388 189.219"><defs><style>.a{fill:#be2229;}.b{fill:#fff;}</style></defs><g transform="translate(-432.134 -1189)"><path class="a" d="M455.048,1176.632h66.091v21.65l-8.261,7.122v7.122l22.79,6.552,16.808,19.656,2.564,27.348L552.475,1341v11.68l-14.529,9.4-99.991-1.424-15.1-6.837L417.729,1343l1.424-101.985,13.389-18.8,17.092-9.686h7.122l2.849-7.122-1.424-3.418-8.546-3.7v-19.371Z" transform="translate(16.134 16)"/><g transform="translate(423.134 1188)"><path class="b" d="M109.713,37.623v-6.1a9.167,9.167,0,0,0,9.156-9.156V10.156A9.167,9.167,0,0,0,109.713,1H48.675a9.167,9.167,0,0,0-9.156,9.156V22.363a9.167,9.167,0,0,0,9.156,9.156v6.1A39.721,39.721,0,0,0,9,77.3v91.558a21.389,21.389,0,0,0,21.363,21.363h97.661a21.389,21.389,0,0,0,21.363-21.363V77.3A39.721,39.721,0,0,0,109.713,37.623ZM60.883,25.415V7.1h9.156V25.415ZM76.142,7.1h6.1V25.415h-6.1Zm12.208,0h9.156V25.415H88.35Zm24.415,3.052V22.363a3.055,3.055,0,0,1-3.052,3.052h-6.1V7.1h6.1A3.055,3.055,0,0,1,112.765,10.156ZM45.623,22.363V10.156A3.055,3.055,0,0,1,48.675,7.1h6.1V25.415h-6.1A3.055,3.055,0,0,1,45.623,22.363Zm9.156,9.156H103.61v6.1H54.779Zm-6.1,12.208h61.038a33.6,33.6,0,0,1,33.415,30.519H15.259A33.6,33.6,0,0,1,48.675,43.727ZM15.1,165.8v-6.1h64.09a3.051,3.051,0,0,0,3.052-3.052V118.236l14.365-14.365a3.044,3.044,0,0,0,.894-2.158V80.35h45.779V165.8ZM91.4,80.35v20.1L77.036,114.815a3.044,3.044,0,0,0-.894,2.158v24.415H15.1V80.35Zm-15.26,67.142v6.1H15.1v-6.1Zm51.883,36.623H30.363a15.288,15.288,0,0,1-14.951-12.208H142.976A15.288,15.288,0,0,1,128.025,184.115Z"/><path class="b" d="M60.363,56.682a10.682,10.682,0,0,0-21.363,0V67.363a3.051,3.051,0,0,0,3.052,3.052H78.675v-6.1H60.363Zm-6.1,7.63H45.1v-7.63a4.578,4.578,0,0,1,9.156,0Z" transform="translate(61.558 92.336)"/><path class="b" d="M64.773,40.565l-5.112,3.409A10.66,10.66,0,0,0,39,47.682V58.363a3.051,3.051,0,0,0,3.052,3.052H78.675v-6.1H60.363V50.84l7.029-4.685H78.675v-6.1H66.467A3.069,3.069,0,0,0,64.773,40.565ZM54.26,55.312H45.1v-7.63a4.578,4.578,0,1,1,9.156,0Z" transform="translate(61.558 73.869)"/><path class="b" d="M69.519,29H48.156A9.167,9.167,0,0,0,39,38.156v3.052a9.167,9.167,0,0,0,9.156,9.156H69.519a9.167,9.167,0,0,0,9.156-9.156V38.156A9.167,9.167,0,0,0,69.519,29Zm3.052,12.208a3.055,3.055,0,0,1-3.052,3.052H48.156A3.055,3.055,0,0,1,45.1,41.208V38.156A3.055,3.055,0,0,1,48.156,35.1H69.519a3.055,3.055,0,0,1,3.052,3.052Z" transform="translate(61.558 57.454)"/><path class="b" d="M16.052,41.208A3.051,3.051,0,0,0,13,44.26V56.467a3.051,3.051,0,0,0,3.052,3.052h15.26v-6.1H19.1v-6.1H28.26a3.051,3.051,0,0,0,3.052-3.052V32.052A3.051,3.051,0,0,0,28.26,29H13v6.1H25.208v6.1Z" transform="translate(8.208 57.454)"/><path class="b" d="M23.052,47.312h9.156V59.519h6.1V47.312h3.052v-6.1H38.312V32.052h-6.1v9.156H26.1V29H20V44.26A3.051,3.051,0,0,0,23.052,47.312Z" transform="translate(22.571 57.454)"/><path class="b" d="M28,37h6.1v6.1H28Z" transform="translate(38.986 73.869)"/><path class="b" d="M65.027,38.38l5.753-2.033A30.568,30.568,0,0,0,42,16v6.1A24.46,24.46,0,0,1,65.027,38.38Z" transform="translate(67.713 30.779)"/></g></g></svg>