<svg xmlns="http://www.w3.org/2000/svg" width="252.941" height="181.275" viewBox="0 0 252.941 181.275"><defs><style>.a{fill:#be2229;}.b{fill:#fff;}</style></defs><g transform="translate(-818.134 -1193)"><path class="a" d="M822.716-1645.147v135.03l29.627,1.709,6.837,12.25,17.947,8.546,11.11-5.7s6.837-9.686,7.692-10.54,8.546-6.267,8.546-6.267h92.584l8.261,16.807,19.656,7.122s5.413-5.983,6.267-7.122,13.1-16.807,13.1-16.807l22.79-1.14V-1559.4l-38.458-56.405H982.246l-1.994-29.342Z" transform="translate(0 2859)"/><g transform="translate(818.134 1120.467)"><g transform="translate(33.726 203.22)"><g transform="translate(0 0)"><path class="b" d="M93.561,337.067a25.294,25.294,0,1,0,25.294,25.294A25.32,25.32,0,0,0,93.561,337.067Zm0,42.157a16.863,16.863,0,1,1,16.863-16.863A16.88,16.88,0,0,1,93.561,379.224Z" transform="translate(-68.267 -337.067)"/></g></g><g transform="translate(177.059 203.22)"><g transform="translate(0 0)"><path class="b" d="M383.694,337.067a25.294,25.294,0,1,0,25.294,25.294A25.32,25.32,0,0,0,383.694,337.067Zm0,42.157a16.863,16.863,0,1,1,16.863-16.863A16.88,16.88,0,0,1,383.694,379.224Z" transform="translate(-358.4 -337.067)"/></g></g><g transform="translate(160.196 118.906)"><g transform="translate(0 0)"><path class="b" d="M416.342,227.355,378.4,168.335a4.216,4.216,0,0,0-3.546-1.935H328.483a4.214,4.214,0,0,0-4.216,4.216V276.008a4.212,4.212,0,0,0,4.216,4.216h16.863v-8.432H332.7v-96.96h39.855l36.027,56.043v40.918H387.5v8.431H412.8a4.212,4.212,0,0,0,4.216-4.216V229.635A4.2,4.2,0,0,0,416.342,227.355Z" transform="translate(-324.267 -166.4)"/></g></g><g transform="translate(177.059 135.768)"><path class="b" d="M366.832,238.474v-29.51h33.726v-8.431H362.617a4.214,4.214,0,0,0-4.216,4.216V242.69a4.211,4.211,0,0,0,4.216,4.216h63.235v-8.432h-59.02Z" transform="translate(-358.401 -200.533)"/></g><g transform="translate(0 89.396)"><g transform="translate(0 0)"><path class="b" d="M164.412,106.667H4.216A4.217,4.217,0,0,0,0,110.883v134.9A4.214,4.214,0,0,0,4.216,250H37.941v-8.431H8.432V115.1H160.2V241.569H80.1V250h84.314a4.211,4.211,0,0,0,4.216-4.216v-134.9A4.214,4.214,0,0,0,164.412,106.667Z" transform="translate(0 -106.667)"/></g></g><g transform="translate(4.216 207.435)"><g transform="translate(0 0)"><rect class="b" width="25.294" height="8.432"/></g></g><g transform="translate(88.529 207.435)"><g transform="translate(0 0)"><rect class="b" width="71.667" height="8.432"/></g></g><g transform="translate(231.863 207.435)"><g transform="translate(0 0)"><rect class="b" width="16.863" height="8.432"/></g></g><g transform="translate(16.863 106.259)"><rect class="b" width="147.549" height="8.432"/></g><g transform="translate(54.804 224.298)"><g transform="translate(0 0)"><rect class="b" width="8.432" height="8.432"/></g></g><g transform="translate(198.137 224.298)"><g transform="translate(0 0)"><rect class="b" width="8.432" height="8.432"/></g></g><g transform="translate(16.863 72.533)"><rect class="b" width="59.02" height="8.432"/></g><g transform="translate(0 72.533)"><rect class="b" width="8.432" height="8.432"/></g></g></g></svg>